<?xml version="1.0" encoding="UTF-8"?>
<svg xmlns="http://www.w3.org/2000/svg" width="813" height="1151" viewBox="0 0 813 1151">
  <rect width="100%" height="100%" fill="#181818" />
  <g id="edges">
<line x1="120.94" y1="20.00" x2="56.58" y2="21.39" stroke="#7eff46" stroke-width="2" />
<line x1="120.94" y1="20.00" x2="119.85" y2="78.80" stroke="#7eff46" stroke-width="2" />
<line x1="56.58" y1="21.39" x2="57.92" y2="267.86" stroke="#7eff46" stroke-width="2" />
<line x1="97.37" y1="78.80" x2="119.85" y2="78.80" stroke="#7eff46" stroke-width="2" />
<line x1="119.85" y1="78.80" x2="120.66" y2="118.47" stroke="#7eff46" stroke-width="2" />
<line x1="120.66" y1="118.47" x2="93.94" y2="119.30" stroke="#7eff46" stroke-width="2" />
<line x1="93.94" y1="119.30" x2="92.84" y2="160.47" stroke="#7eff46" stroke-width="2" />
<line x1="214.52" y1="153.53" x2="214.58" y2="182.86" stroke="#7eff46" stroke-width="2" />
<line x1="92.84" y1="160.47" x2="115.75" y2="161.30" stroke="#7eff46" stroke-width="2" />
<line x1="115.75" y1="161.30" x2="116.13" y2="183.80" stroke="#7eff46" stroke-width="2" />
<line x1="138.19" y1="170.30" x2="171.25" y2="171.40" stroke="#7eff46" stroke-width="2" />
<line x1="138.19" y1="170.30" x2="137.84" y2="183.13" stroke="#7eff46" stroke-width="2" />
<line x1="190.27" y1="170.61" x2="171.25" y2="171.40" stroke="#7eff46" stroke-width="2" />
<line x1="190.27" y1="170.61" x2="190.00" y2="184.12" stroke="#7eff46" stroke-width="2" />
<line x1="171.25" y1="171.40" x2="170.64" y2="194.41" stroke="#7eff46" stroke-width="2" />
<line x1="214.58" y1="182.86" x2="190.00" y2="184.12" stroke="#7eff46" stroke-width="2" />
<line x1="137.84" y1="183.13" x2="116.13" y2="183.80" stroke="#7eff46" stroke-width="2" />
<line x1="137.84" y1="183.13" x2="137.57" y2="196.66" stroke="#7eff46" stroke-width="2" />
<line x1="190.00" y1="184.12" x2="190.37" y2="195.80" stroke="#7eff46" stroke-width="2" />
<line x1="170.64" y1="194.41" x2="190.37" y2="195.80" stroke="#7eff46" stroke-width="2" />
<line x1="170.64" y1="194.41" x2="137.57" y2="196.66" stroke="#7eff46" stroke-width="2" />
<line x1="100.75" y1="267.74" x2="57.92" y2="267.86" stroke="#7eff46" stroke-width="2" />
<line x1="100.75" y1="267.74" x2="100.75" y2="314.30" stroke="#7eff46" stroke-width="2" />
<line x1="117.31" y1="313.20" x2="100.75" y2="314.30" stroke="#7eff46" stroke-width="2" />
<line x1="117.31" y1="313.20" x2="116.84" y2="337.47" stroke="#7eff46" stroke-width="2" />
<line x1="208.75" y1="336.74" x2="116.84" y2="337.47" stroke="#7eff46" stroke-width="2" />
<line x1="208.75" y1="336.74" x2="208.37" y2="730.92" stroke="#7eff46" stroke-width="2" />
<line x1="116.84" y1="337.47" x2="118.44" y2="381.39" stroke="#7eff46" stroke-width="2" />
<line x1="232.11" y1="338.12" x2="232.11" y2="381.12" stroke="#7eff46" stroke-width="2" />
<line x1="726.25" y1="343.80" x2="726.31" y2="466.47" stroke="#7eff46" stroke-width="2" />
<line x1="219.50" y1="381.12" x2="232.11" y2="381.12" stroke="#7eff46" stroke-width="2" />
<line x1="219.50" y1="381.12" x2="136.44" y2="381.39" stroke="#7eff46" stroke-width="2" />
<line x1="219.50" y1="381.12" x2="219.50" y2="464.48" stroke="#7eff46" stroke-width="2" />
<line x1="118.44" y1="381.39" x2="136.44" y2="381.39" stroke="#7eff46" stroke-width="2" />
<line x1="136.44" y1="381.39" x2="135.65" y2="414.80" stroke="#7eff46" stroke-width="2" />
<line x1="155.51" y1="414.58" x2="135.65" y2="414.80" stroke="#7eff46" stroke-width="2" />
<line x1="135.65" y1="414.80" x2="136.75" y2="440.30" stroke="#7eff46" stroke-width="2" />
<line x1="165.31" y1="439.67" x2="136.75" y2="440.30" stroke="#7eff46" stroke-width="2" />
<line x1="165.31" y1="439.67" x2="165.31" y2="460.40" stroke="#7eff46" stroke-width="2" />
<line x1="264.19" y1="441.40" x2="292.75" y2="441.53" stroke="#7eff46" stroke-width="2" />
<line x1="264.19" y1="441.40" x2="264.50" y2="464.48" stroke="#7eff46" stroke-width="2" />
<line x1="292.75" y1="441.53" x2="293.35" y2="464.16" stroke="#7eff46" stroke-width="2" />
<line x1="469.75" y1="445.30" x2="623.88" y2="448.52" stroke="#7eff46" stroke-width="2" />
<line x1="469.75" y1="445.30" x2="470.26" y2="540.74" stroke="#7eff46" stroke-width="2" />
<line x1="726.31" y1="466.47" x2="650.62" y2="467.01" stroke="#7eff46" stroke-width="2" />
<line x1="726.31" y1="466.47" x2="727.64" y2="504.41" stroke="#7eff46" stroke-width="2" />
<line x1="650.62" y1="467.01" x2="650.86" y2="504.41" stroke="#7eff46" stroke-width="2" />
<line x1="155.84" y1="460.40" x2="133.05" y2="460.49" stroke="#7eff46" stroke-width="2" />
<line x1="155.84" y1="460.40" x2="165.31" y2="460.40" stroke="#7eff46" stroke-width="2" />
<line x1="155.84" y1="460.40" x2="155.84" y2="503.21" stroke="#7eff46" stroke-width="2" />
<line x1="133.05" y1="460.49" x2="133.38" y2="502.74" stroke="#7eff46" stroke-width="2" />
<line x1="293.35" y1="464.16" x2="318.52" y2="464.53" stroke="#7eff46" stroke-width="2" />
<line x1="293.35" y1="464.16" x2="278.12" y2="464.86" stroke="#7eff46" stroke-width="2" />
<line x1="219.50" y1="464.48" x2="264.50" y2="464.48" stroke="#7eff46" stroke-width="2" />
<line x1="264.50" y1="464.48" x2="278.12" y2="464.86" stroke="#7eff46" stroke-width="2" />
<line x1="318.52" y1="464.53" x2="319.64" y2="526.19" stroke="#7eff46" stroke-width="2" />
<line x1="278.12" y1="464.86" x2="278.39" y2="492.12" stroke="#7eff46" stroke-width="2" />
<line x1="176.70" y1="480.51" x2="176.56" y2="503.30" stroke="#7eff46" stroke-width="2" />
<line x1="278.39" y1="492.12" x2="294.50" y2="492.12" stroke="#7eff46" stroke-width="2" />
<line x1="294.50" y1="492.12" x2="294.03" y2="523.63" stroke="#7eff46" stroke-width="2" />
<line x1="133.38" y1="502.74" x2="155.84" y2="503.21" stroke="#7eff46" stroke-width="2" />
<line x1="133.38" y1="502.74" x2="135.58" y2="607.86" stroke="#7eff46" stroke-width="2" />
<line x1="155.84" y1="503.21" x2="176.56" y2="503.30" stroke="#7eff46" stroke-width="2" />
<line x1="650.86" y1="504.41" x2="727.64" y2="504.41" stroke="#7eff46" stroke-width="2" />
<line x1="294.03" y1="523.63" x2="266.75" y2="524.19" stroke="#7eff46" stroke-width="2" />
<line x1="266.75" y1="524.19" x2="266.75" y2="542.54" stroke="#7eff46" stroke-width="2" />
<line x1="746.58" y1="525.39" x2="716.52" y2="526.53" stroke="#7eff46" stroke-width="2" />
<line x1="746.58" y1="525.39" x2="746.37" y2="1000.92" stroke="#7eff46" stroke-width="2" />
<line x1="319.64" y1="526.19" x2="350.19" y2="526.87" stroke="#7eff46" stroke-width="2" />
<line x1="716.52" y1="526.53" x2="717.52" y2="586.53" stroke="#7eff46" stroke-width="2" />
<line x1="350.19" y1="526.87" x2="349.93" y2="554.05" stroke="#7eff46" stroke-width="2" />
<line x1="605.49" y1="538.38" x2="604.75" y2="577.86" stroke="#7eff46" stroke-width="2" />
<line x1="435.92" y1="540.39" x2="470.26" y2="540.74" stroke="#7eff46" stroke-width="2" />
<line x1="435.92" y1="540.39" x2="435.75" y2="554.30" stroke="#7eff46" stroke-width="2" />
<line x1="251.00" y1="542.48" x2="280.70" y2="542.54" stroke="#7eff46" stroke-width="2" />
<line x1="280.70" y1="542.54" x2="266.75" y2="542.54" stroke="#7eff46" stroke-width="2" />
<line x1="251.00" y1="542.48" x2="251.87" y2="571.08" stroke="#7eff46" stroke-width="2" />
<line x1="280.70" y1="542.54" x2="283.57" y2="570.55" stroke="#7eff46" stroke-width="2" />
<line x1="349.93" y1="554.05" x2="435.75" y2="554.30" stroke="#7eff46" stroke-width="2" />
<line x1="283.57" y1="570.55" x2="251.87" y2="571.08" stroke="#7eff46" stroke-width="2" />
<line x1="644.75" y1="574.49" x2="604.75" y2="577.86" stroke="#7eff46" stroke-width="2" />
<line x1="644.75" y1="574.49" x2="644.92" y2="587.86" stroke="#7eff46" stroke-width="2" />
<line x1="717.52" y1="586.53" x2="644.92" y2="587.86" stroke="#7eff46" stroke-width="2" />
<line x1="717.52" y1="586.53" x2="717.75" y2="608.49" stroke="#7eff46" stroke-width="2" />
<line x1="162.75" y1="606.49" x2="135.58" y2="607.86" stroke="#7eff46" stroke-width="2" />
<line x1="162.75" y1="606.49" x2="162.31" y2="658.30" stroke="#7eff46" stroke-width="2" />
<line x1="717.75" y1="608.49" x2="701.75" y2="609.11" stroke="#7eff46" stroke-width="2" />
<line x1="701.75" y1="609.11" x2="702.56" y2="623.30" stroke="#7eff46" stroke-width="2" />
<line x1="658.19" y1="622.47" x2="702.56" y2="623.30" stroke="#7eff46" stroke-width="2" />
<line x1="658.19" y1="622.47" x2="658.52" y2="646.53" stroke="#7eff46" stroke-width="2" />
<line x1="162.31" y1="658.30" x2="81.75" y2="658.74" stroke="#7eff46" stroke-width="2" />
<line x1="81.75" y1="658.74" x2="82.75" y2="1034.49" stroke="#7eff46" stroke-width="2" />
<line x1="208.37" y1="730.92" x2="101.75" y2="731.30" stroke="#7eff46" stroke-width="2" />
<line x1="101.75" y1="731.30" x2="101.12" y2="777.86" stroke="#7eff46" stroke-width="2" />
<line x1="301.49" y1="747.38" x2="195.92" y2="747.39" stroke="#7eff46" stroke-width="2" />
<line x1="301.49" y1="747.38" x2="301.75" y2="813.30" stroke="#7eff46" stroke-width="2" />
<line x1="195.92" y1="747.39" x2="196.52" y2="782.30" stroke="#7eff46" stroke-width="2" />
<line x1="20.00" y1="777.12" x2="101.12" y2="777.86" stroke="#7eff46" stroke-width="2" />
<line x1="216.31" y1="781.20" x2="196.52" y2="782.30" stroke="#7eff46" stroke-width="2" />
<line x1="216.31" y1="781.20" x2="216.66" y2="802.47" stroke="#7eff46" stroke-width="2" />
<line x1="529.00" y1="792.12" x2="589.76" y2="793.91" stroke="#7eff46" stroke-width="2" />
<line x1="529.00" y1="792.12" x2="529.45" y2="814.49" stroke="#7eff46" stroke-width="2" />
<line x1="589.76" y1="793.91" x2="641.84" y2="793.99" stroke="#7eff46" stroke-width="2" />
<line x1="589.76" y1="793.91" x2="589.75" y2="883.49" stroke="#7eff46" stroke-width="2" />
<line x1="641.84" y1="793.99" x2="641.84" y2="843.13" stroke="#7eff46" stroke-width="2" />
<line x1="772.75" y1="804.11" x2="792.25" y2="804.80" stroke="#7eff46" stroke-width="2" />
<line x1="772.75" y1="804.11" x2="772.75" y2="822.30" stroke="#7eff46" stroke-width="2" />
<line x1="183.25" y1="805.56" x2="182.94" y2="854.30" stroke="#7eff46" stroke-width="2" />
<line x1="285.66" y1="813.13" x2="301.75" y2="813.30" stroke="#7eff46" stroke-width="2" />
<line x1="285.66" y1="813.13" x2="284.84" y2="865.47" stroke="#7eff46" stroke-width="2" />
<line x1="546.31" y1="814.20" x2="529.45" y2="814.49" stroke="#7eff46" stroke-width="2" />
<line x1="546.31" y1="814.20" x2="546.31" y2="851.67" stroke="#7eff46" stroke-width="2" />
<line x1="772.75" y1="822.30" x2="725.01" y2="823.22" stroke="#7eff46" stroke-width="2" />
<line x1="725.01" y1="823.22" x2="725.85" y2="882.86" stroke="#7eff46" stroke-width="2" />
<line x1="484.92" y1="833.21" x2="484.75" y2="852.30" stroke="#7eff46" stroke-width="2" />
<line x1="663.49" y1="841.80" x2="641.84" y2="843.13" stroke="#7eff46" stroke-width="2" />
<line x1="546.31" y1="851.67" x2="484.75" y2="852.30" stroke="#7eff46" stroke-width="2" />
<line x1="484.75" y1="852.30" x2="483.67" y2="935.04" stroke="#7eff46" stroke-width="2" />
<line x1="216.98" y1="853.07" x2="182.94" y2="854.30" stroke="#7eff46" stroke-width="2" />
<line x1="216.98" y1="853.07" x2="217.00" y2="866.12" stroke="#7eff46" stroke-width="2" />
<line x1="284.84" y1="865.47" x2="307.75" y2="865.49" stroke="#7eff46" stroke-width="2" />
<line x1="284.84" y1="865.47" x2="217.00" y2="866.12" stroke="#7eff46" stroke-width="2" />
<line x1="307.75" y1="865.49" x2="307.45" y2="934.49" stroke="#7eff46" stroke-width="2" />
<line x1="217.00" y1="866.12" x2="217.75" y2="905.49" stroke="#7eff46" stroke-width="2" />
<line x1="623.05" y1="882.11" x2="725.85" y2="882.86" stroke="#7eff46" stroke-width="2" />
<line x1="623.05" y1="882.11" x2="589.75" y2="883.49" stroke="#7eff46" stroke-width="2" />
<line x1="623.05" y1="882.11" x2="623.06" y2="943.21" stroke="#7eff46" stroke-width="2" />
<line x1="246.84" y1="904.47" x2="247.13" y2="956.68" stroke="#7eff46" stroke-width="2" />
<line x1="217.75" y1="905.49" x2="159.75" y2="905.74" stroke="#7eff46" stroke-width="2" />
<line x1="159.75" y1="905.74" x2="159.52" y2="930.07" stroke="#7eff46" stroke-width="2" />
<line x1="521.00" y1="919.48" x2="590.56" y2="920.30" stroke="#7eff46" stroke-width="2" />
<line x1="521.00" y1="919.48" x2="520.75" y2="934.30" stroke="#7eff46" stroke-width="2" />
<line x1="590.56" y1="920.30" x2="592.75" y2="943.30" stroke="#7eff46" stroke-width="2" />
<line x1="217.52" y1="929.53" x2="159.52" y2="930.07" stroke="#7eff46" stroke-width="2" />
<line x1="217.52" y1="929.53" x2="216.75" y2="960.30" stroke="#7eff46" stroke-width="2" />
<line x1="520.75" y1="934.30" x2="483.67" y2="935.04" stroke="#7eff46" stroke-width="2" />
<line x1="307.45" y1="934.49" x2="394.37" y2="934.75" stroke="#7eff46" stroke-width="2" />
<line x1="307.45" y1="934.49" x2="306.70" y2="981.28" stroke="#7eff46" stroke-width="2" />
<line x1="394.37" y1="934.75" x2="483.67" y2="935.04" stroke="#7eff46" stroke-width="2" />
<line x1="394.37" y1="934.75" x2="393.92" y2="978.39" stroke="#7eff46" stroke-width="2" />
<line x1="669.25" y1="935.67" x2="717.65" y2="936.74" stroke="#7eff46" stroke-width="2" />
<line x1="669.25" y1="935.67" x2="669.93" y2="969.05" stroke="#7eff46" stroke-width="2" />
<line x1="717.65" y1="936.74" x2="717.19" y2="1000.93" stroke="#7eff46" stroke-width="2" />
<line x1="623.06" y1="943.21" x2="592.75" y2="943.30" stroke="#7eff46" stroke-width="2" />
<line x1="623.06" y1="943.21" x2="623.01" y2="969.38" stroke="#7eff46" stroke-width="2" />
<line x1="247.13" y1="956.68" x2="271.37" y2="956.68" stroke="#7eff46" stroke-width="2" />
<line x1="271.37" y1="956.68" x2="271.58" y2="982.21" stroke="#7eff46" stroke-width="2" />
<line x1="151.98" y1="959.53" x2="216.75" y2="960.30" stroke="#7eff46" stroke-width="2" />
<line x1="151.98" y1="959.53" x2="153.31" y2="987.30" stroke="#7eff46" stroke-width="2" />
<line x1="216.75" y1="960.30" x2="216.64" y2="981.41" stroke="#7eff46" stroke-width="2" />
<line x1="669.93" y1="969.05" x2="623.01" y2="969.38" stroke="#7eff46" stroke-width="2" />
<line x1="393.92" y1="978.39" x2="338.83" y2="980.04" stroke="#7eff46" stroke-width="2" />
<line x1="393.92" y1="978.39" x2="393.31" y2="1008.81" stroke="#7eff46" stroke-width="2" />
<line x1="306.70" y1="981.28" x2="271.58" y2="982.21" stroke="#7eff46" stroke-width="2" />
<line x1="216.64" y1="981.41" x2="271.58" y2="982.21" stroke="#7eff46" stroke-width="2" />
<line x1="153.31" y1="987.30" x2="118.56" y2="988.30" stroke="#7eff46" stroke-width="2" />
<line x1="153.31" y1="987.30" x2="153.52" y2="1130.07" stroke="#7eff46" stroke-width="2" />
<line x1="118.56" y1="988.30" x2="118.52" y2="1033.53" stroke="#7eff46" stroke-width="2" />
<line x1="746.37" y1="1000.92" x2="717.19" y2="1000.93" stroke="#7eff46" stroke-width="2" />
<line x1="503.84" y1="1008.13" x2="393.31" y2="1008.81" stroke="#7eff46" stroke-width="2" />
<line x1="503.84" y1="1008.13" x2="504.19" y2="1073.30" stroke="#7eff46" stroke-width="2" />
<line x1="118.52" y1="1033.53" x2="82.75" y2="1034.49" stroke="#7eff46" stroke-width="2" />
<line x1="590.24" y1="1072.25" x2="632.56" y2="1073.00" stroke="#7eff46" stroke-width="2" />
<line x1="590.24" y1="1072.25" x2="504.19" y2="1073.30" stroke="#7eff46" stroke-width="2" />
<line x1="590.24" y1="1072.25" x2="589.75" y2="1091.30" stroke="#7eff46" stroke-width="2" />
<line x1="653.84" y1="1072.47" x2="632.56" y2="1073.00" stroke="#7eff46" stroke-width="2" />
<line x1="653.84" y1="1072.47" x2="653.52" y2="1116.07" stroke="#7eff46" stroke-width="2" />
<line x1="589.75" y1="1091.30" x2="589.75" y2="1116.30" stroke="#7eff46" stroke-width="2" />
<line x1="653.52" y1="1116.07" x2="589.75" y2="1116.30" stroke="#7eff46" stroke-width="2" />
<line x1="87.19" y1="1129.30" x2="153.52" y2="1130.07" stroke="#7eff46" stroke-width="2" />
<line x1="623.88" y1="448.52" x2="623.88" y2="467.01" stroke="#7eff46" stroke-width="2" />
<line x1="650.62" y1="467.01" x2="623.88" y2="467.01" stroke="#7eff46" stroke-width="2" />
  </g>
  <g id="nodes">
<circle cx="120.94" cy="20.00" r="4.5" fill="#ff0055" />
<circle cx="56.58" cy="21.39" r="4.5" fill="#ff0055" />
<circle cx="97.37" cy="78.80" r="4.5" fill="#00fff7" />
<circle cx="119.85" cy="78.80" r="4.5" fill="#ff0055" />
<circle cx="120.66" cy="118.47" r="4.5" fill="#ff0055" />
<circle cx="93.94" cy="119.30" r="4.5" fill="#ff0055" />
<circle cx="214.52" cy="153.53" r="4.5" fill="#ff0055" />
<circle cx="92.84" cy="160.47" r="4.5" fill="#ff0055" />
<circle cx="115.75" cy="161.30" r="4.5" fill="#ff0055" />
<circle cx="138.19" cy="170.30" r="4.5" fill="#ff0055" />
<circle cx="190.27" cy="170.61" r="4.5" fill="#00fff7" />
<circle cx="171.25" cy="171.40" r="4.5" fill="#ff0055" />
<circle cx="214.58" cy="182.86" r="4.5" fill="#ff0055" />
<circle cx="137.84" cy="183.13" r="4.5" fill="#ff0055" />
<circle cx="116.13" cy="183.80" r="4.5" fill="#ff0055" />
<circle cx="190.00" cy="184.12" r="4.5" fill="#ff0055" />
<circle cx="170.64" cy="194.41" r="4.5" fill="#ff0055" />
<circle cx="190.37" cy="195.80" r="4.5" fill="#ff0055" />
<circle cx="137.57" cy="196.66" r="4.5" fill="#ff0055" />
<circle cx="100.75" cy="267.74" r="4.5" fill="#ff0055" />
<circle cx="57.92" cy="267.86" r="4.5" fill="#ff0055" />
<circle cx="117.31" cy="313.20" r="4.5" fill="#ff0055" />
<circle cx="100.75" cy="314.30" r="4.5" fill="#ff0055" />
<circle cx="208.75" cy="336.74" r="4.5" fill="#ff0055" />
<circle cx="116.84" cy="337.47" r="4.5" fill="#ff0055" />
<circle cx="232.11" cy="338.12" r="4.5" fill="#00fff7" />
<circle cx="726.25" cy="343.80" r="4.5" fill="#ff0055" />
<circle cx="219.50" cy="381.12" r="4.5" fill="#ff0055" />
<circle cx="118.44" cy="381.39" r="4.5" fill="#ff0055" />
<circle cx="136.44" cy="381.39" r="4.5" fill="#ff0055" />
<circle cx="155.51" cy="414.58" r="4.5" fill="#00fff7" />
<circle cx="135.65" cy="414.80" r="4.5" fill="#ff0055" />
<circle cx="165.31" cy="439.67" r="4.5" fill="#ff0055" />
<circle cx="136.75" cy="440.30" r="4.5" fill="#ff0055" />
<circle cx="264.19" cy="441.40" r="4.5" fill="#ff0055" />
<circle cx="292.75" cy="441.53" r="4.5" fill="#00fff7" />
<circle cx="469.75" cy="445.30" r="4.5" fill="#ff0055" />
<circle cx="623.88" cy="448.52" r="4.5" fill="#ff0055" />
<circle cx="726.31" cy="466.47" r="4.5" fill="#ff0055" />
<circle cx="650.62" cy="467.01" r="4.5" fill="#ff0055" />
<circle cx="155.84" cy="460.40" r="4.5" fill="#ff0055" />
<circle cx="133.05" cy="460.49" r="4.5" fill="#ff0055" />
<circle cx="293.35" cy="464.16" r="4.5" fill="#ff0055" />
<circle cx="219.50" cy="464.48" r="4.5" fill="#ff0055" />
<circle cx="264.50" cy="464.48" r="4.5" fill="#ff0055" />
<circle cx="318.52" cy="464.53" r="4.5" fill="#ff0055" />
<circle cx="278.12" cy="464.86" r="4.5" fill="#ff0055" />
<circle cx="176.70" cy="480.51" r="4.5" fill="#00fff7" />
<circle cx="278.39" cy="492.12" r="4.5" fill="#ff0055" />
<circle cx="294.50" cy="492.12" r="4.5" fill="#ff0055" />
<circle cx="133.38" cy="502.74" r="4.5" fill="#ff0055" />
<circle cx="155.84" cy="503.21" r="4.5" fill="#ff0055" />
<circle cx="176.56" cy="503.30" r="4.5" fill="#ff0055" />
<circle cx="650.86" cy="504.41" r="4.5" fill="#00fff7" />
<circle cx="727.64" cy="504.41" r="4.5" fill="#ff0055" />
<circle cx="294.03" cy="523.63" r="4.5" fill="#ff0055" />
<circle cx="266.75" cy="524.19" r="4.5" fill="#ff0055" />
<circle cx="746.58" cy="525.39" r="4.5" fill="#ff0055" />
<circle cx="319.64" cy="526.19" r="4.5" fill="#ff0055" />
<circle cx="716.52" cy="526.53" r="4.5" fill="#ff0055" />
<circle cx="350.19" cy="526.87" r="4.5" fill="#ff0055" />
<circle cx="605.49" cy="538.38" r="4.5" fill="#00fff7" />
<circle cx="435.92" cy="540.39" r="4.5" fill="#ff0055" />
<circle cx="470.26" cy="540.74" r="4.5" fill="#ff0055" />
<circle cx="251.00" cy="542.48" r="4.5" fill="#ff0055" />
<circle cx="280.70" cy="542.54" r="4.5" fill="#ff0055" />
<circle cx="349.93" cy="554.05" r="4.5" fill="#ff0055" />
<circle cx="435.75" cy="554.30" r="4.5" fill="#ff0055" />
<circle cx="283.57" cy="570.55" r="4.5" fill="#ff0055" />
<circle cx="251.87" cy="571.08" r="4.5" fill="#ff0055" />
<circle cx="644.75" cy="574.49" r="4.5" fill="#ff0055" />
<circle cx="604.75" cy="577.86" r="4.5" fill="#ff0055" />
<circle cx="717.52" cy="586.53" r="4.5" fill="#ff0055" />
<circle cx="644.92" cy="587.86" r="4.5" fill="#ff0055" />
<circle cx="162.75" cy="606.49" r="4.5" fill="#ff0055" />
<circle cx="135.58" cy="607.86" r="4.5" fill="#ff0055" />
<circle cx="717.75" cy="608.49" r="4.5" fill="#ff0055" />
<circle cx="701.75" cy="609.11" r="4.5" fill="#ff0055" />
<circle cx="658.19" cy="622.47" r="4.5" fill="#ff0055" />
<circle cx="702.56" cy="623.30" r="4.5" fill="#ff0055" />
<circle cx="658.52" cy="646.53" r="4.5" fill="#00fff7" />
<circle cx="162.31" cy="658.30" r="4.5" fill="#ff0055" />
<circle cx="81.75" cy="658.74" r="4.5" fill="#ff0055" />
<circle cx="208.37" cy="730.92" r="4.5" fill="#ff0055" />
<circle cx="101.75" cy="731.30" r="4.5" fill="#ff0055" />
<circle cx="301.49" cy="747.38" r="4.5" fill="#ff0055" />
<circle cx="195.92" cy="747.39" r="4.5" fill="#ff0055" />
<circle cx="20.00" cy="777.12" r="4.5" fill="#ff0055" />
<circle cx="101.12" cy="777.86" r="4.5" fill="#ff0055" />
<circle cx="216.31" cy="781.20" r="4.5" fill="#ff0055" />
<circle cx="196.52" cy="782.30" r="4.5" fill="#00fff7" />
<circle cx="529.00" cy="792.12" r="4.5" fill="#ff0055" />
<circle cx="589.76" cy="793.91" r="4.5" fill="#ff0055" />
<circle cx="641.84" cy="793.99" r="4.5" fill="#ff0055" />
<circle cx="216.66" cy="802.47" r="4.5" fill="#ff0055" />
<circle cx="772.75" cy="804.11" r="4.5" fill="#ff0055" />
<circle cx="792.25" cy="804.80" r="4.5" fill="#00fff7" />
<circle cx="183.25" cy="805.56" r="4.5" fill="#00fff7" />
<circle cx="285.66" cy="813.13" r="4.5" fill="#ff0055" />
<circle cx="301.75" cy="813.30" r="4.5" fill="#ff0055" />
<circle cx="546.31" cy="814.20" r="4.5" fill="#ff0055" />
<circle cx="529.45" cy="814.49" r="4.5" fill="#ff0055" />
<circle cx="772.75" cy="822.30" r="4.5" fill="#ff0055" />
<circle cx="725.01" cy="823.22" r="4.5" fill="#ff0055" />
<circle cx="484.92" cy="833.21" r="4.5" fill="#00fff7" />
<circle cx="663.49" cy="841.80" r="4.5" fill="#00fff7" />
<circle cx="641.84" cy="843.13" r="4.5" fill="#ff0055" />
<circle cx="546.31" cy="851.67" r="4.5" fill="#ff0055" />
<circle cx="484.75" cy="852.30" r="4.5" fill="#ff0055" />
<circle cx="216.98" cy="853.07" r="4.5" fill="#ff0055" />
<circle cx="182.94" cy="854.30" r="4.5" fill="#ff0055" />
<circle cx="284.84" cy="865.47" r="4.5" fill="#ff0055" />
<circle cx="307.75" cy="865.49" r="4.5" fill="#00fff7" />
<circle cx="217.00" cy="866.12" r="4.5" fill="#ff0055" />
<circle cx="623.05" cy="882.11" r="4.5" fill="#ff0055" />
<circle cx="725.85" cy="882.86" r="4.5" fill="#ff0055" />
<circle cx="589.75" cy="883.49" r="4.5" fill="#ff0055" />
<circle cx="246.84" cy="904.47" r="4.5" fill="#00fff7" />
<circle cx="217.75" cy="905.49" r="4.5" fill="#ff0055" />
<circle cx="159.75" cy="905.74" r="4.5" fill="#ff0055" />
<circle cx="521.00" cy="919.48" r="4.5" fill="#ff0055" />
<circle cx="590.56" cy="920.30" r="4.5" fill="#ff0055" />
<circle cx="217.52" cy="929.53" r="4.5" fill="#ff0055" />
<circle cx="159.52" cy="930.07" r="4.5" fill="#00fff7" />
<circle cx="520.75" cy="934.30" r="4.5" fill="#ff0055" />
<circle cx="307.45" cy="934.49" r="4.5" fill="#ff0055" />
<circle cx="394.37" cy="934.75" r="4.5" fill="#8000ff" />
<circle cx="483.67" cy="935.04" r="4.5" fill="#ff0055" />
<circle cx="669.25" cy="935.67" r="4.5" fill="#ff0055" />
<circle cx="717.65" cy="936.74" r="4.5" fill="#ff0055" />
<circle cx="623.06" cy="943.21" r="4.5" fill="#ff0055" />
<circle cx="592.75" cy="943.30" r="4.5" fill="#ff0055" />
<circle cx="247.13" cy="956.68" r="4.5" fill="#ff0055" />
<circle cx="271.37" cy="956.68" r="4.5" fill="#ff0055" />
<circle cx="151.98" cy="959.53" r="4.5" fill="#00fff7" />
<circle cx="216.75" cy="960.30" r="4.5" fill="#ff0055" />
<circle cx="669.93" cy="969.05" r="4.5" fill="#ff0055" />
<circle cx="623.01" cy="969.38" r="4.5" fill="#ff0055" />
<circle cx="393.92" cy="978.39" r="4.5" fill="#ff0055" />
<circle cx="338.83" cy="980.04" r="4.5" fill="#00fff7" />
<circle cx="306.70" cy="981.28" r="4.5" fill="#ff0055" />
<circle cx="216.64" cy="981.41" r="4.5" fill="#ff0055" />
<circle cx="271.58" cy="982.21" r="4.5" fill="#ff0055" />
<circle cx="153.31" cy="987.30" r="4.5" fill="#ff0055" />
<circle cx="118.56" cy="988.30" r="4.5" fill="#ff0055" />
<circle cx="746.37" cy="1000.92" r="4.5" fill="#ff0055" />
<circle cx="717.19" cy="1000.93" r="4.5" fill="#ff0055" />
<circle cx="503.84" cy="1008.13" r="4.5" fill="#ff0055" />
<circle cx="393.31" cy="1008.81" r="4.5" fill="#ff0055" />
<circle cx="118.52" cy="1033.53" r="4.5" fill="#ff0055" />
<circle cx="82.75" cy="1034.49" r="4.5" fill="#ff0055" />
<circle cx="590.24" cy="1072.25" r="4.5" fill="#ff0055" />
<circle cx="653.84" cy="1072.47" r="4.5" fill="#ff0055" />
<circle cx="632.56" cy="1073.00" r="4.5" fill="#00fff7" />
<circle cx="504.19" cy="1073.30" r="4.5" fill="#ff0055" />
<circle cx="589.75" cy="1091.30" r="4.5" fill="#00fff7" />
<circle cx="653.52" cy="1116.07" r="4.5" fill="#00fff7" />
<circle cx="589.75" cy="1116.30" r="4.5" fill="#ff0055" />
<circle cx="87.19" cy="1129.30" r="4.5" fill="#ff0055" />
<circle cx="153.52" cy="1130.07" r="4.5" fill="#ff0055" />
<circle cx="232.11" cy="381.12" r="4.5" fill="#ff0055" />
<circle cx="165.31" cy="460.40" r="4.5" fill="#ff0055" />
<circle cx="266.75" cy="542.54" r="4.5" fill="#ff0055" />
<circle cx="623.88" cy="467.01" r="4.5" fill="#ff0055" />
  </g>
</svg>